<svg xmlns="http://www.w3.org/2000/svg" viewBox="0 0 96 96" width="96" height="96" role="img" aria-label="cilindro com engrenagem — o SGBD entre você e os dados">
  <title>cilindro com engrenagem — o SGBD entre você e os dados</title>
  <g fill="none" stroke="#FFFFFF" stroke-width="5.5" stroke-linecap="round" stroke-linejoin="round">
    <ellipse cx="38" cy="22" rx="26" ry="9.5"/>
    <path d="M12 22v44c0 5.2 11.6 9.5 26 9.5 4 0 7.9-.3 11.3-.9"/>
    <path d="M12 44c0 5.2 11.6 9.5 26 9.5 1.6 0 3.2-.1 4.7-.2"/>
    <circle cx="69" cy="65" r="11" stroke="#FFFFFF"/>
    <path d="M69 47v7M69 76v7M87 65h-7M58 65h-7M81.7 52.3l-5 5M61.3 72.7l-5 5M81.7 77.7l-5-5M61.3 57.3l-5-5" stroke="#FFFFFF"/>
  </g>
</svg>
