<svg width="249" height="236" id="my-svg" xmlns="http://www.w3.org/2000/svg" xmlns:xlink="http://www.w3.org/1999/xlink" class="erDiagram" style="background-color: transparent;" viewBox="10.25 4 249.21875 236" role="graphics-document document" aria-roledescription="er"><style>#my-svg{font-family:Segoe UI,Arial,sans-serif;font-size:18px;fill:#10161c;}@keyframes edge-animation-frame{from{stroke-dashoffset:0;}}@keyframes dash{to{stroke-dashoffset:0;}}#my-svg .edge-animation-slow{stroke-dasharray:9,5!important;stroke-dashoffset:900;animation:dash 50s linear infinite;stroke-linecap:round;}#my-svg .edge-animation-fast{stroke-dasharray:9,5!important;stroke-dashoffset:900;animation:dash 20s linear infinite;stroke-linecap:round;}#my-svg .error-icon{fill:#fff4e5;}#my-svg .error-text{fill:#000b1a;stroke:#000b1a;}#my-svg .edge-thickness-normal{stroke-width:1px;}#my-svg .edge-thickness-thick{stroke-width:3.5px;}#my-svg .edge-pattern-solid{stroke-dasharray:0;}#my-svg .edge-thickness-invisible{stroke-width:0;fill:none;}#my-svg .edge-pattern-dashed{stroke-dasharray:3;}#my-svg .edge-pattern-dotted{stroke-dasharray:2;}#my-svg .marker{fill:#5b6771;stroke:#5b6771;}#my-svg .marker.cross{stroke:#5b6771;}#my-svg svg{font-family:Segoe UI,Arial,sans-serif;font-size:18px;}#my-svg p{margin:0;}#my-svg .entityBox{fill:#003d75;stroke:#003d75;}#my-svg .relationshipLabelBox{fill:#fff4e5;opacity:0.7;background-color:#fff4e5;}#my-svg .relationshipLabelBox rect{opacity:0.5;}#my-svg .labelBkg{background-color:rgba(255, 244, 229, 0.5);}#my-svg .edgeLabel{background-color:#ffffff;}#my-svg .edgeLabel .label rect{fill:#ffffff;}#my-svg .edgeLabel .label text{fill:#10161c;}#my-svg .edgeLabel .label{fill:#003d75;font-size:14px;}#my-svg .label{font-family:Segoe UI,Arial,sans-serif;color:#10161c;}#my-svg .edge-pattern-dashed{stroke-dasharray:8,8;}#my-svg .node rect,#my-svg .node circle,#my-svg .node ellipse,#my-svg .node polygon{fill:#003d75;stroke:#003d75;stroke-width:1px;}#my-svg .relationshipLine{stroke:#5b6771;stroke-width:1px;fill:none;}#my-svg .marker{fill:none!important;stroke:#5b6771!important;stroke-width:1;}#my-svg [data-look=neo].labelBkg{background-color:rgba(255, 244, 229, 0.5);}#my-svg .cluster rect{fill:#f4f7fa;stroke:#c3ced8;stroke-width:1px;}#my-svg .cluster text{fill:#003d75;}#my-svg .cluster-label text{fill:#003d75;}#my-svg .node .neo-node{stroke:#003d75;}#my-svg [data-look="neo"].node rect,#my-svg [data-look="neo"].cluster rect,#my-svg [data-look="neo"].node polygon{stroke:url(#my-svg-gradient);filter:drop-shadow( 1px 2px 2px rgba(185,185,185,1));}#my-svg [data-look="neo"].swimlane.cluster rect{filter:none;}#my-svg [data-look="neo"].node path{stroke:url(#my-svg-gradient);stroke-width:1px;}#my-svg [data-look="neo"].node .outer-path{filter:drop-shadow( 1px 2px 2px rgba(185,185,185,1));}#my-svg [data-look="neo"].node .neo-line path{stroke:#003d75;filter:none;}#my-svg [data-look="neo"].node circle{stroke:url(#my-svg-gradient);filter:drop-shadow( 1px 2px 2px rgba(185,185,185,1));}#my-svg [data-look="neo"].node circle .state-start{fill:#000000;}#my-svg [data-look="neo"].icon-shape .icon{fill:url(#my-svg-gradient);filter:drop-shadow( 1px 2px 2px rgba(185,185,185,1));}#my-svg [data-look="neo"].icon-shape .icon-neo path{stroke:url(#my-svg-gradient);filter:drop-shadow( 1px 2px 2px rgba(185,185,185,1));}#my-svg .node .label:not(.attribute-type):not(.attribute-name):not(.attribute-keys):not(.attribute-comment) text,#my-svg .node .label:not(.attribute-type):not(.attribute-name):not(.attribute-keys):not(.attribute-comment) tspan{fill:rgb(255, 255, 255)!important;}#my-svg .label.name text,#my-svg .label.name tspan{font-weight:700!important;}#my-svg .label.attribute-comment text,#my-svg .label.attribute-comment tspan{fill:rgb(138, 66, 0)!important;font-weight:700!important;}#my-svg .label.attribute-type text,#my-svg .label.attribute-type tspan{fill:rgb(91, 103, 113)!important;}#my-svg .label.attribute-name text,#my-svg .label.attribute-name tspan{fill:rgb(16, 22, 28)!important;}#my-svg .edgeLabel .label text,#my-svg .edgeLabel .label tspan{fill:rgb(16, 22, 28)!important;}#my-svg .cluster rect{rx:10;ry:10;}#my-svg :root{--mermaid-font-family:"trebuchet ms",verdana,arial,sans-serif;}</style><g><defs><marker id="my-svg_er-onlyOneStart" class="marker onlyOne er" refX="0" refY="9" markerWidth="18" markerHeight="18" orient="auto"><path d="M9,0 L9,18 M15,0 L15,18"/></marker></defs><defs><marker id="my-svg_er-onlyOneEnd" class="marker onlyOne er" refX="18" refY="9" markerWidth="18" markerHeight="18" orient="auto"><path d="M3,0 L3,18 M9,0 L9,18"/></marker></defs><defs><marker id="my-svg_er-zeroOrOneStart" class="marker zeroOrOne er" refX="0" refY="9" markerWidth="30" markerHeight="18" orient="auto"><circle fill="white" cx="21" cy="9" r="6"/><path d="M9,0 L9,18"/></marker></defs><defs><marker id="my-svg_er-zeroOrOneEnd" class="marker zeroOrOne er" refX="30" refY="9" markerWidth="30" markerHeight="18" orient="auto"><circle fill="white" cx="9" cy="9" r="6"/><path d="M21,0 L21,18"/></marker></defs><defs><marker id="my-svg_er-oneOrMoreStart" class="marker oneOrMore er" refX="18" refY="18" markerWidth="45" markerHeight="36" orient="auto"><path d="M0,18 Q 18,0 36,18 Q 18,36 0,18 M42,9 L42,27"/></marker></defs><defs><marker id="my-svg_er-oneOrMoreEnd" class="marker oneOrMore er" refX="27" refY="18" markerWidth="45" markerHeight="36" orient="auto"><path d="M3,9 L3,27 M9,18 Q27,0 45,18 Q27,36 9,18"/></marker></defs><defs><marker id="my-svg_er-zeroOrMoreStart" class="marker zeroOrMore er" refX="18" refY="18" markerWidth="57" markerHeight="36" orient="auto"><circle fill="white" cx="48" cy="18" r="6"/><path d="M0,18 Q18,0 36,18 Q18,36 0,18"/></marker></defs><defs><marker id="my-svg_er-zeroOrMoreEnd" class="marker zeroOrMore er" refX="39" refY="18" markerWidth="57" markerHeight="36" orient="auto"><circle fill="white" cx="9" cy="18" r="6"/><path d="M21,18 Q39,0 57,18 Q39,36 21,18"/></marker></defs><g class="root"><g class="edges edgePath"/><g class="clusters"/><g class="edgeLabels"/><g class="nodes"><g class="node default" id="my-svg-entity-JOGO-0" data-look="classic" transform="translate(128.609375, 122)"><g class="outer-path" style=""><path d="M-110.359375 -110 L110.359375 -110 L110.359375 110 L-110.359375 110" stroke="none" stroke-width="0" fill="#003d75"/><path d="M-110.359375 -110 C-27.04684834328006 -110, 56.26567831343988 -110, 110.359375 -110 M-110.359375 -110 C-43.83785353780404 -110, 22.683667924391926 -110, 110.359375 -110 M110.359375 -110 C110.359375 -38.75762634907181, 110.359375 32.48474730185637, 110.359375 110 M110.359375 -110 C110.359375 -40.25274495168662, 110.359375 29.494510096626755, 110.359375 110 M110.359375 110 C42.25606343187569 110, -25.847248136248623 110, -110.359375 110 M110.359375 110 C45.08604567530318 110, -20.187283649393635 110, -110.359375 110 M-110.359375 110 C-110.359375 36.90389407608954, -110.359375 -36.192211847820914, -110.359375 -110 M-110.359375 110 C-110.359375 64.01462756471496, -110.359375 18.029255129429913, -110.359375 -110" stroke="#003d75" stroke-width="1.3" fill="none" stroke-dasharray="0 0"/></g><g style="" class="row-rect-odd"><path d="M-110.359375 -66 L110.359375 -66 L110.359375 -22 L-110.359375 -22" stroke="none" stroke-width="0" fill="#ffffff"/><path d="M-110.359375 -66 C-22.16444212235409 -66, 66.03049075529182 -66, 110.359375 -66 M-110.359375 -66 C-47.02677359636062 -66, 16.30582780727876 -66, 110.359375 -66 M110.359375 -66 C110.359375 -56.69590959513723, 110.359375 -47.39181919027446, 110.359375 -22 M110.359375 -66 C110.359375 -51.840769051019336, 110.359375 -37.68153810203867, 110.359375 -22 M110.359375 -22 C26.219496067050144 -22, -57.92038286589971 -22, -110.359375 -22 M110.359375 -22 C57.85248468539876 -22, 5.345594370797514 -22, -110.359375 -22 M-110.359375 -22 C-110.359375 -38.50486159303061, -110.359375 -55.00972318606123, -110.359375 -66 M-110.359375 -22 C-110.359375 -38.756811188901565, -110.359375 -55.51362237780313, -110.359375 -66" stroke="#003d75" stroke-width="1.3" fill="none" stroke-dasharray="0 0"/></g><g style="" class="row-rect-even"><path d="M-110.359375 -22 L110.359375 -22 L110.359375 22 L-110.359375 22" stroke="none" stroke-width="0" fill="#e9eff5"/><path d="M-110.359375 -22 C-28.863896124584343 -22, 52.63158275083131 -22, 110.359375 -22 M-110.359375 -22 C-29.146332067522508 -22, 52.066710864954985 -22, 110.359375 -22 M110.359375 -22 C110.359375 -8.061601866907472, 110.359375 5.876796266185057, 110.359375 22 M110.359375 -22 C110.359375 -9.785003168087798, 110.359375 2.429993663824405, 110.359375 22 M110.359375 22 C35.51447172257333 22, -39.330431554853334 22, -110.359375 22 M110.359375 22 C60.353690856636405 22, 10.34800671327281 22, -110.359375 22 M-110.359375 22 C-110.359375 12.791740739218731, -110.359375 3.583481478437463, -110.359375 -22 M-110.359375 22 C-110.359375 7.032538870294786, -110.359375 -7.934922259410428, -110.359375 -22" stroke="#003d75" stroke-width="1.3" fill="none" stroke-dasharray="0 0"/></g><g style="" class="row-rect-odd"><path d="M-110.359375 22 L110.359375 22 L110.359375 66 L-110.359375 66" stroke="none" stroke-width="0" fill="#ffffff"/><path d="M-110.359375 22 C-62.2307191982423 22, -14.102063396484596 22, 110.359375 22 M-110.359375 22 C-63.408010457708016 22, -16.456645915416033 22, 110.359375 22 M110.359375 22 C110.359375 37.63867527839564, 110.359375 53.27735055679128, 110.359375 66 M110.359375 22 C110.359375 34.97582869107785, 110.359375 47.951657382155695, 110.359375 66 M110.359375 66 C36.64655214573452 66, -37.066270708530965 66, -110.359375 66 M110.359375 66 C64.3710095159087 66, 18.382644031817392 66, -110.359375 66 M-110.359375 66 C-110.359375 53.535241844451726, -110.359375 41.07048368890345, -110.359375 22 M-110.359375 66 C-110.359375 53.17262953911802, -110.359375 40.34525907823605, -110.359375 22" stroke="#003d75" stroke-width="1.3" fill="none" stroke-dasharray="0 0"/></g><g style="" class="row-rect-even"><path d="M-110.359375 66 L110.359375 66 L110.359375 110 L-110.359375 110" stroke="none" stroke-width="0" fill="#e9eff5"/><path d="M-110.359375 66 C-55.95796927719812 66, -1.5565635543962344 66, 110.359375 66 M-110.359375 66 C-29.15155488091864 66, 52.05626523816272 66, 110.359375 66 M110.359375 66 C110.359375 78.5874920364655, 110.359375 91.17498407293103, 110.359375 110 M110.359375 66 C110.359375 78.61265213148472, 110.359375 91.22530426296944, 110.359375 110 M110.359375 110 C65.67342140873325 110, 20.98746781746648 110, -110.359375 110 M110.359375 110 C59.55769980293406 110, 8.75602460586812 110, -110.359375 110 M-110.359375 110 C-110.359375 96.22938195628555, -110.359375 82.4587639125711, -110.359375 66 M-110.359375 110 C-110.359375 96.36500919765324, -110.359375 82.73001839530647, -110.359375 66" stroke="#003d75" stroke-width="1.3" fill="none" stroke-dasharray="0 0"/></g><g class="label name" transform="translate(-24.23095703125, -100)" style=""><g><rect class="background" style="stroke: none"/></g><text y="-10.1" style=""><tspan class="text-outer-tspan row" x="0" y="-0.1em" dy="1.1em"><tspan font-style="normal" class="text-inner-tspan" font-weight="normal">JOGO</tspan></tspan></text></g><g class="label attribute-type" transform="translate(-97.859375, -56)" style=""><g><rect class="background" style="stroke: none"/></g><text y="-10.1" style=""><tspan class="text-outer-tspan row" x="0" y="-0.1em" dy="1.1em"><tspan font-style="normal" class="text-inner-tspan" font-weight="normal">int</tspan></tspan></text></g><g class="label attribute-name" transform="translate(-32.4375, -56)" style=""><g><rect class="background" style="stroke: none"/></g><text y="-10.1" style=""><tspan class="text-outer-tspan row" x="0" y="-0.1em" dy="1.1em"><tspan font-style="normal" class="text-inner-tspan" font-weight="normal">*id_jogo</tspan></tspan></text></g><g class="label attribute-keys" transform="translate(122.859375, -56)" style=""><g><rect class="background" style="stroke: none"/></g><text y="-10.1" style=""><tspan class="text-outer-tspan row" x="0" y="-0.1em" dy="1.1em"/></text></g><g class="label attribute-comment" transform="translate(122.859375, -56)" style=""><g><rect class="background" style="stroke: none"/></g><text y="-10.1" style=""><tspan class="text-outer-tspan row" x="0" y="-0.1em" dy="1.1em"/></text></g><g class="label attribute-type" transform="translate(-97.859375, -12)" style=""><g><rect class="background" style="stroke: none"/></g><text y="-10.1" style=""><tspan class="text-outer-tspan row" x="0" y="-0.1em" dy="1.1em"><tspan font-style="normal" class="text-inner-tspan" font-weight="normal">texto</tspan></tspan></text></g><g class="label attribute-name" transform="translate(-32.4375, -12)" style=""><g><rect class="background" style="stroke: none"/></g><text y="-10.1" style=""><tspan class="text-outer-tspan row" x="0" y="-0.1em" dy="1.1em"><tspan font-style="normal" class="text-inner-tspan" font-weight="normal">titulo</tspan></tspan></text></g><g class="label attribute-keys" transform="translate(122.859375, -12)" style=""><g><rect class="background" style="stroke: none"/></g><text y="-10.1" style=""><tspan class="text-outer-tspan row" x="0" y="-0.1em" dy="1.1em"/></text></g><g class="label attribute-comment" transform="translate(122.859375, -12)" style=""><g><rect class="background" style="stroke: none"/></g><text y="-10.1" style=""><tspan class="text-outer-tspan row" x="0" y="-0.1em" dy="1.1em"/></text></g><g class="label attribute-type" transform="translate(-97.859375, 32)" style=""><g><rect class="background" style="stroke: none"/></g><text y="-10.1" style=""><tspan class="text-outer-tspan row" x="0" y="-0.1em" dy="1.1em"><tspan font-style="normal" class="text-inner-tspan" font-weight="normal">texto</tspan></tspan></text></g><g class="label attribute-name" transform="translate(-32.4375, 32)" style=""><g><rect class="background" style="stroke: none"/></g><text y="-10.1" style=""><tspan class="text-outer-tspan row" x="0" y="-0.1em" dy="1.1em"><tspan font-style="normal" class="text-inner-tspan" font-weight="normal">genero</tspan></tspan></text></g><g class="label attribute-keys" transform="translate(122.859375, 32)" style=""><g><rect class="background" style="stroke: none"/></g><text y="-10.1" style=""><tspan class="text-outer-tspan row" x="0" y="-0.1em" dy="1.1em"/></text></g><g class="label attribute-comment" transform="translate(122.859375, 32)" style=""><g><rect class="background" style="stroke: none"/></g><text y="-10.1" style=""><tspan class="text-outer-tspan row" x="0" y="-0.1em" dy="1.1em"/></text></g><g class="label attribute-type" transform="translate(-97.859375, 76)" style=""><g><rect class="background" style="stroke: none"/></g><text y="-10.1" style=""><tspan class="text-outer-tspan row" x="0" y="-0.1em" dy="1.1em"><tspan font-style="normal" class="text-inner-tspan" font-weight="normal">int</tspan></tspan></text></g><g class="label attribute-name" transform="translate(-32.4375, 76)" style=""><g><rect class="background" style="stroke: none"/></g><text y="-10.1" style=""><tspan class="text-outer-tspan row" x="0" y="-0.1em" dy="1.1em"><tspan font-style="normal" class="text-inner-tspan" font-weight="normal">ano_lancamento</tspan></tspan></text></g><g class="label attribute-keys" transform="translate(122.859375, 76)" style=""><g><rect class="background" style="stroke: none"/></g><text y="-10.1" style=""><tspan class="text-outer-tspan row" x="0" y="-0.1em" dy="1.1em"/></text></g><g class="label attribute-comment" transform="translate(122.859375, 76)" style=""><g><rect class="background" style="stroke: none"/></g><text y="-10.1" style=""><tspan class="text-outer-tspan row" x="0" y="-0.1em" dy="1.1em"/></text></g><g class="divider"><path d="M-110.359375 -66.00005 L-110.359375 -65.99995 L110.359375 -65.99995 L110.359375 -66.00005" stroke="none" stroke-width="0" fill="#003d75" fill-rule="evenodd"/><path d="M-110.359375 -66.00005 C-110.359375 -66.00001796709282, -110.359375 -65.99998593418562, -110.359375 -65.99995 M-110.359375 -66.00005 C-110.359375 -66.00002175960894, -110.359375 -65.99999351921787, -110.359375 -65.99995 M-110.359375 -65.99995 C-26.414795106151317 -65.99995, 57.529784787697366 -65.99995, 110.359375 -65.99995 M-110.359375 -65.99995 C-28.536920710618375 -65.99995, 53.28553357876325 -65.99995, 110.359375 -65.99995 M110.359375 -65.99995 C110.359375 -65.99997068703344, 110.359375 -65.99999137406688, 110.359375 -66.00005 M110.359375 -65.99995 C110.359375 -65.99997065407203, 110.359375 -65.99999130814406, 110.359375 -66.00005 M110.359375 -66.00005 C58.176710949186614 -66.00005, 5.994046898373227 -66.00005, -110.359375 -66.00005 M110.359375 -66.00005 C59.28297777452495 -66.00005, 8.206580549049903 -66.00005, -110.359375 -66.00005" stroke="#003d75" stroke-width="1.3" fill="none" stroke-dasharray="0 0"/></g><g class="divider"><path d="M-44.93755 -66 L-44.93745 -66 L-44.93745 110 L-44.93755 110" stroke="none" stroke-width="0" fill="#003d75" fill-rule="evenodd"/><path d="M-44.93755 -66 C-44.93752894855051 -66, -44.937507897101014 -66, -44.93745 -66 M-44.93755 -66 C-44.93752220009285 -66, -44.937494400185706 -66, -44.93745 -66 M-44.93745 -66 C-44.93745 -2.6922765725009157, -44.93745 60.61544685499817, -44.93745 110 M-44.93745 -66 C-44.93745 -29.260601121950472, -44.93745 7.4787977560990555, -44.93745 110 M-44.93745 110 C-44.93747967660609 110, -44.93750935321217 110, -44.93755 110 M-44.93745 110 C-44.93748758233072 110, -44.93752516466144 110, -44.93755 110 M-44.93755 110 C-44.93755 67.08910158768, -44.93755 24.178203175359997, -44.93755 -66 M-44.93755 110 C-44.93755 52.87657820535385, -44.93755 -4.246843589292297, -44.93755 -66" stroke="#003d75" stroke-width="1.3" fill="none" stroke-dasharray="0 0"/></g><g class="divider"><path d="M-110.359375 -66.00005 L-110.359375 -65.99995 L110.359375 -65.99995 L110.359375 -66.00005" stroke="none" stroke-width="0" fill="#003d75" fill-rule="evenodd"/><path d="M-110.359375 -66.00005 C-110.359375 -66.00002268668443, -110.359375 -65.99999537336888, -110.359375 -65.99995 M-110.359375 -66.00005 C-110.359375 -66.00002588070916, -110.359375 -66.00000176141832, -110.359375 -65.99995 M-110.359375 -65.99995 C-28.284310871036595 -65.99995, 53.79075325792681 -65.99995, 110.359375 -65.99995 M-110.359375 -65.99995 C-61.007746400992474 -65.99995, -11.656117801984948 -65.99995, 110.359375 -65.99995 M110.359375 -65.99995 C110.359375 -65.99998032836076, 110.359375 -66.00001065672153, 110.359375 -66.00005 M110.359375 -65.99995 C110.359375 -65.99998458205548, 110.359375 -66.00001916411094, 110.359375 -66.00005 M110.359375 -66.00005 C24.908058676453408 -66.00005, -60.543257647093185 -66.00005, -110.359375 -66.00005 M110.359375 -66.00005 C23.771036395187053 -66.00005, -62.81730220962589 -66.00005, -110.359375 -66.00005" stroke="#003d75" stroke-width="1.3" fill="none" stroke-dasharray="0 0"/></g></g></g></g></g><defs><filter id="my-svg-drop-shadow" height="130%" width="130%"><feDropShadow dx="4" dy="4" stdDeviation="0" flood-opacity="0.06" flood-color="#000000"/></filter></defs><defs><filter id="my-svg-drop-shadow-small" height="150%" width="150%"><feDropShadow dx="2" dy="2" stdDeviation="0" flood-opacity="0.06" flood-color="#000000"/></filter></defs><linearGradient id="my-svg-gradient" gradientUnits="objectBoundingBox" x1="0%" y1="0%" x2="100%" y2="0%"><stop offset="0%" stop-color="#003d75" stop-opacity="1"/><stop offset="100%" stop-color="hsl(210, 0%, 86.862745098%)" stop-opacity="1"/></linearGradient></svg>