<svg width="312" height="312" xmlns="http://www.w3.org/2000/svg" viewBox="0 0 296 296"><rect fill="#ffffff" width="296" height="296"/><path fill="#000000" d="M32,32h8v8h-8zM40,32h8v8h-8zM48,32h8v8h-8zM56,32h8v8h-8zM64,32h8v8h-8zM72,32h8v8h-8zM80,32h8v8h-8zM104,32h8v8h-8zM112,32h8v8h-8zM152,32h8v8h-8zM160,32h8v8h-8zM176,32h8v8h-8zM184,32h8v8h-8zM192,32h8v8h-8zM208,32h8v8h-8zM216,32h8v8h-8zM224,32h8v8h-8zM232,32h8v8h-8zM240,32h8v8h-8zM248,32h8v8h-8zM256,32h8v8h-8zM32,40h8v8h-8zM80,40h8v8h-8zM104,40h8v8h-8zM112,40h8v8h-8zM120,40h8v8h-8zM176,40h8v8h-8zM192,40h8v8h-8zM208,40h8v8h-8zM256,40h8v8h-8zM32,48h8v8h-8zM48,48h8v8h-8zM56,48h8v8h-8zM64,48h8v8h-8zM80,48h8v8h-8zM96,48h8v8h-8zM104,48h8v8h-8zM112,48h8v8h-8zM120,48h8v8h-8zM144,48h8v8h-8zM160,48h8v8h-8zM184,48h8v8h-8zM208,48h8v8h-8zM224,48h8v8h-8zM232,48h8v8h-8zM240,48h8v8h-8zM256,48h8v8h-8zM32,56h8v8h-8zM48,56h8v8h-8zM56,56h8v8h-8zM64,56h8v8h-8zM80,56h8v8h-8zM96,56h8v8h-8zM104,56h8v8h-8zM112,56h8v8h-8zM120,56h8v8h-8zM168,56h8v8h-8zM176,56h8v8h-8zM192,56h8v8h-8zM208,56h8v8h-8zM224,56h8v8h-8zM232,56h8v8h-8zM240,56h8v8h-8zM256,56h8v8h-8zM32,64h8v8h-8zM48,64h8v8h-8zM56,64h8v8h-8zM64,64h8v8h-8zM80,64h8v8h-8zM96,64h8v8h-8zM120,64h8v8h-8zM128,64h8v8h-8zM136,64h8v8h-8zM144,64h8v8h-8zM152,64h8v8h-8zM184,64h8v8h-8zM192,64h8v8h-8zM208,64h8v8h-8zM224,64h8v8h-8zM232,64h8v8h-8zM240,64h8v8h-8zM256,64h8v8h-8zM32,72h8v8h-8zM80,72h8v8h-8zM96,72h8v8h-8zM136,72h8v8h-8zM144,72h8v8h-8zM152,72h8v8h-8zM176,72h8v8h-8zM192,72h8v8h-8zM208,72h8v8h-8zM256,72h8v8h-8zM32,80h8v8h-8zM40,80h8v8h-8zM48,80h8v8h-8zM56,80h8v8h-8zM64,80h8v8h-8zM72,80h8v8h-8zM80,80h8v8h-8zM96,80h8v8h-8zM112,80h8v8h-8zM128,80h8v8h-8zM144,80h8v8h-8zM160,80h8v8h-8zM176,80h8v8h-8zM192,80h8v8h-8zM208,80h8v8h-8zM216,80h8v8h-8zM224,80h8v8h-8zM232,80h8v8h-8zM240,80h8v8h-8zM248,80h8v8h-8zM256,80h8v8h-8zM96,88h8v8h-8zM104,88h8v8h-8zM120,88h8v8h-8zM128,88h8v8h-8zM136,88h8v8h-8zM152,88h8v8h-8zM184,88h8v8h-8zM192,88h8v8h-8zM32,96h8v8h-8zM48,96h8v8h-8zM56,96h8v8h-8zM64,96h8v8h-8zM72,96h8v8h-8zM80,96h8v8h-8zM112,96h8v8h-8zM144,96h8v8h-8zM160,96h8v8h-8zM168,96h8v8h-8zM208,96h8v8h-8zM216,96h8v8h-8zM224,96h8v8h-8zM232,96h8v8h-8zM240,96h8v8h-8zM32,104h8v8h-8zM64,104h8v8h-8zM72,104h8v8h-8zM88,104h8v8h-8zM104,104h8v8h-8zM120,104h8v8h-8zM128,104h8v8h-8zM168,104h8v8h-8zM176,104h8v8h-8zM184,104h8v8h-8zM192,104h8v8h-8zM208,104h8v8h-8zM216,104h8v8h-8zM224,104h8v8h-8zM256,104h8v8h-8zM40,112h8v8h-8zM64,112h8v8h-8zM72,112h8v8h-8zM80,112h8v8h-8zM88,112h8v8h-8zM96,112h8v8h-8zM104,112h8v8h-8zM112,112h8v8h-8zM120,112h8v8h-8zM152,112h8v8h-8zM168,112h8v8h-8zM176,112h8v8h-8zM200,112h8v8h-8zM216,112h8v8h-8zM224,112h8v8h-8zM56,120h8v8h-8zM64,120h8v8h-8zM72,120h8v8h-8zM96,120h8v8h-8zM104,120h8v8h-8zM128,120h8v8h-8zM144,120h8v8h-8zM192,120h8v8h-8zM208,120h8v8h-8zM216,120h8v8h-8zM232,120h8v8h-8zM248,120h8v8h-8zM32,128h8v8h-8zM40,128h8v8h-8zM48,128h8v8h-8zM64,128h8v8h-8zM72,128h8v8h-8zM80,128h8v8h-8zM96,128h8v8h-8zM104,128h8v8h-8zM112,128h8v8h-8zM120,128h8v8h-8zM152,128h8v8h-8zM160,128h8v8h-8zM168,128h8v8h-8zM192,128h8v8h-8zM200,128h8v8h-8zM232,128h8v8h-8zM240,128h8v8h-8zM32,136h8v8h-8zM40,136h8v8h-8zM48,136h8v8h-8zM96,136h8v8h-8zM104,136h8v8h-8zM128,136h8v8h-8zM136,136h8v8h-8zM144,136h8v8h-8zM176,136h8v8h-8zM192,136h8v8h-8zM200,136h8v8h-8zM208,136h8v8h-8zM216,136h8v8h-8zM224,136h8v8h-8zM256,136h8v8h-8zM56,144h8v8h-8zM64,144h8v8h-8zM72,144h8v8h-8zM80,144h8v8h-8zM88,144h8v8h-8zM112,144h8v8h-8zM120,144h8v8h-8zM136,144h8v8h-8zM144,144h8v8h-8zM152,144h8v8h-8zM160,144h8v8h-8zM208,144h8v8h-8zM232,144h8v8h-8zM240,144h8v8h-8zM32,152h8v8h-8zM40,152h8v8h-8zM48,152h8v8h-8zM72,152h8v8h-8zM96,152h8v8h-8zM104,152h8v8h-8zM112,152h8v8h-8zM120,152h8v8h-8zM128,152h8v8h-8zM136,152h8v8h-8zM160,152h8v8h-8zM200,152h8v8h-8zM208,152h8v8h-8zM224,152h8v8h-8zM248,152h8v8h-8zM32,160h8v8h-8zM48,160h8v8h-8zM80,160h8v8h-8zM88,160h8v8h-8zM104,160h8v8h-8zM144,160h8v8h-8zM152,160h8v8h-8zM160,160h8v8h-8zM168,160h8v8h-8zM192,160h8v8h-8zM216,160h8v8h-8zM232,160h8v8h-8zM240,160h8v8h-8zM32,168h8v8h-8zM40,168h8v8h-8zM64,168h8v8h-8zM72,168h8v8h-8zM88,168h8v8h-8zM96,168h8v8h-8zM104,168h8v8h-8zM112,168h8v8h-8zM120,168h8v8h-8zM128,168h8v8h-8zM160,168h8v8h-8zM168,168h8v8h-8zM184,168h8v8h-8zM192,168h8v8h-8zM200,168h8v8h-8zM208,168h8v8h-8zM216,168h8v8h-8zM224,168h8v8h-8zM240,168h8v8h-8zM256,168h8v8h-8zM32,176h8v8h-8zM48,176h8v8h-8zM56,176h8v8h-8zM64,176h8v8h-8zM72,176h8v8h-8zM80,176h8v8h-8zM104,176h8v8h-8zM120,176h8v8h-8zM152,176h8v8h-8zM160,176h8v8h-8zM176,176h8v8h-8zM192,176h8v8h-8zM216,176h8v8h-8zM240,176h8v8h-8zM32,184h8v8h-8zM64,184h8v8h-8zM112,184h8v8h-8zM120,184h8v8h-8zM144,184h8v8h-8zM160,184h8v8h-8zM176,184h8v8h-8zM184,184h8v8h-8zM192,184h8v8h-8zM208,184h8v8h-8zM216,184h8v8h-8zM248,184h8v8h-8zM32,192h8v8h-8zM48,192h8v8h-8zM80,192h8v8h-8zM96,192h8v8h-8zM104,192h8v8h-8zM128,192h8v8h-8zM152,192h8v8h-8zM160,192h8v8h-8zM168,192h8v8h-8zM184,192h8v8h-8zM192,192h8v8h-8zM200,192h8v8h-8zM208,192h8v8h-8zM216,192h8v8h-8zM224,192h8v8h-8zM240,192h8v8h-8zM248,192h8v8h-8zM256,192h8v8h-8zM96,200h8v8h-8zM112,200h8v8h-8zM136,200h8v8h-8zM144,200h8v8h-8zM192,200h8v8h-8zM224,200h8v8h-8zM232,200h8v8h-8zM240,200h8v8h-8zM248,200h8v8h-8zM256,200h8v8h-8zM32,208h8v8h-8zM40,208h8v8h-8zM48,208h8v8h-8zM56,208h8v8h-8zM64,208h8v8h-8zM72,208h8v8h-8zM80,208h8v8h-8zM136,208h8v8h-8zM144,208h8v8h-8zM152,208h8v8h-8zM160,208h8v8h-8zM176,208h8v8h-8zM184,208h8v8h-8zM192,208h8v8h-8zM208,208h8v8h-8zM224,208h8v8h-8zM232,208h8v8h-8zM240,208h8v8h-8zM32,216h8v8h-8zM80,216h8v8h-8zM96,216h8v8h-8zM120,216h8v8h-8zM128,216h8v8h-8zM136,216h8v8h-8zM176,216h8v8h-8zM192,216h8v8h-8zM224,216h8v8h-8zM256,216h8v8h-8zM32,224h8v8h-8zM48,224h8v8h-8zM56,224h8v8h-8zM64,224h8v8h-8zM80,224h8v8h-8zM96,224h8v8h-8zM104,224h8v8h-8zM112,224h8v8h-8zM144,224h8v8h-8zM168,224h8v8h-8zM192,224h8v8h-8zM200,224h8v8h-8zM208,224h8v8h-8zM216,224h8v8h-8zM224,224h8v8h-8zM240,224h8v8h-8zM248,224h8v8h-8zM32,232h8v8h-8zM48,232h8v8h-8zM56,232h8v8h-8zM64,232h8v8h-8zM80,232h8v8h-8zM96,232h8v8h-8zM112,232h8v8h-8zM120,232h8v8h-8zM128,232h8v8h-8zM136,232h8v8h-8zM160,232h8v8h-8zM184,232h8v8h-8zM232,232h8v8h-8zM240,232h8v8h-8zM248,232h8v8h-8zM256,232h8v8h-8zM32,240h8v8h-8zM48,240h8v8h-8zM56,240h8v8h-8zM64,240h8v8h-8zM80,240h8v8h-8zM96,240h8v8h-8zM144,240h8v8h-8zM152,240h8v8h-8zM176,240h8v8h-8zM184,240h8v8h-8zM200,240h8v8h-8zM208,240h8v8h-8zM216,240h8v8h-8zM224,240h8v8h-8zM232,240h8v8h-8zM240,240h8v8h-8zM248,240h8v8h-8zM32,248h8v8h-8zM80,248h8v8h-8zM112,248h8v8h-8zM120,248h8v8h-8zM136,248h8v8h-8zM144,248h8v8h-8zM160,248h8v8h-8zM192,248h8v8h-8zM208,248h8v8h-8zM232,248h8v8h-8zM248,248h8v8h-8zM32,256h8v8h-8zM40,256h8v8h-8zM48,256h8v8h-8zM56,256h8v8h-8zM64,256h8v8h-8zM72,256h8v8h-8zM80,256h8v8h-8zM96,256h8v8h-8zM112,256h8v8h-8zM120,256h8v8h-8zM128,256h8v8h-8zM136,256h8v8h-8zM144,256h8v8h-8zM152,256h8v8h-8zM160,256h8v8h-8zM168,256h8v8h-8zM176,256h8v8h-8zM184,256h8v8h-8zM200,256h8v8h-8zM216,256h8v8h-8zM224,256h8v8h-8zM240,256h8v8h-8z"/></svg>